<?xml version="1.0" encoding="UTF-8" standalone="no"?>
<!-- Created with Inkscape (http://www.inkscape.org/) -->

<svg
   xmlns:dc="http://purl.org/dc/elements/1.1/"
   xmlns:cc="http://creativecommons.org/ns#"
   xmlns:rdf="http://www.w3.org/1999/02/22-rdf-syntax-ns#"
   xmlns:svg="http://www.w3.org/2000/svg"
   xmlns="http://www.w3.org/2000/svg"
   xmlns:sodipodi="http://sodipodi.sourceforge.net/DTD/sodipodi-0.dtd"
   xmlns:inkscape="http://www.inkscape.org/namespaces/inkscape"
   width="28.222221mm"
   height="26.571646mm"
   viewBox="0 0 99.999998 94.1515"
   id="svg2"
   version="1.1"
   inkscape:version="0.91 r13725"
   sodipodi:docname="logo.svg">
  <defs
     id="defs4">
    <path
       style="opacity:0.41100003;fill:none;fill-opacity:1;stroke:#e8441d;stroke-width:7.84674454;stroke-linecap:round;stroke-linejoin:round;stroke-miterlimit:4;stroke-dasharray:none;stroke-dashoffset:0;stroke-opacity:1"
       d="m 20.245799,972.43472 c -6.776961,-33.24639 6.536371,-65.9228 31.61341,-85.43892 10.165935,-7.91161 22.265113,-13.66046 35.742806,-16.40777 46.724075,-9.5243 92.322405,20.63204 101.846755,67.35611 9.52424,46.72407 -20.63213,92.32236 -67.35618,101.84666 -46.724079,9.5243 -92.32253,-20.632 -101.846791,-67.35608 z"
       id="path4177-3"
       inkscape:connector-curvature="0"
       sodipodi:nodetypes="ssssss" />
    <path
       style="opacity:0.36000001;fill:none;fill-opacity:1;stroke:#e8441d;stroke-width:7.84674454;stroke-linecap:round;stroke-linejoin:round;stroke-miterlimit:4;stroke-dasharray:none;stroke-dashoffset:0;stroke-opacity:1"
       d="m 20.245799,972.43472 c -6.776961,-33.24639 6.536371,-65.9228 31.61341,-85.43892 10.165935,-7.91161 22.265113,-13.66046 35.742806,-16.40777 46.724075,-9.5243 92.322405,20.63204 101.846755,67.35611 9.52424,46.72407 -20.63213,92.32236 -67.35618,101.84666 -46.724079,9.5243 -92.32253,-20.632 -101.846791,-67.35608 z"
       id="path4177-7"
       inkscape:connector-curvature="0"
       sodipodi:nodetypes="ssssss" />
  </defs>
  <sodipodi:namedview
     id="base"
     pagecolor="#ffffff"
     bordercolor="#666666"
     borderopacity="1.0"
     inkscape:pageopacity="0.0"
     inkscape:pageshadow="2"
     inkscape:zoom="3.959798"
     inkscape:cx="-0.83347158"
     inkscape:cy="36.812226"
     inkscape:document-units="px"
     inkscape:current-layer="layer1"
     showgrid="false"
     inkscape:window-width="1920"
     inkscape:window-height="1146"
     inkscape:window-x="0"
     inkscape:window-y="0"
     inkscape:window-maximized="1"
     fit-margin-top="0"
     fit-margin-left="0"
     fit-margin-right="0"
     fit-margin-bottom="0" />
  <metadata
     id="metadata7">
    <rdf:RDF>
      <cc:Work
         rdf:about="">
        <dc:format>image/svg+xml</dc:format>
        <dc:type
           rdf:resource="http://purl.org/dc/dcmitype/StillImage" />
        <dc:title />
      </cc:Work>
    </rdf:RDF>
  </metadata>
  <g
     inkscape:label="Layer 1"
     inkscape:groupmode="layer"
     id="layer1"
     transform="translate(-1.8879693,-956.09371)">
    <path
       style="opacity:1;fill:none;fill-opacity:1;stroke:#e8441d;stroke-width:1.63651216;stroke-linecap:round;stroke-linejoin:round;stroke-miterlimit:4;stroke-dasharray:none;stroke-opacity:0.99607843"
       d="m 87.888572,978.24523 -39.445447,-3.73515 -18.292579,15.18331 c -1.341767,28.55081 0,0 -1.341767,28.55081 9.753865,22.1977 0,0 9.753865,22.1977 -12.062717,-3.2321 -27.835281,-18.2405 -27.835281,-38.9348 0,-22.93784 18.594786,-41.53263 41.532618,-41.53263 19.985821,0 30.676617,9.69369 35.628591,18.27076 z"
       id="wall"
       inkscape:connector-curvature="0"
       sodipodi:nodetypes="ccccccsc"
       inkscape:label="#path4150" />
    <path
       style="opacity:1;fill:none;fill-opacity:1;stroke:#e8441d;stroke-width:1.63651216;stroke-linecap:round;stroke-linejoin:round;stroke-miterlimit:4;stroke-dasharray:none;stroke-opacity:1"
       d="m 65.691636,1000.5329 0.08856,-24.11792 -35.365108,17.88919 4.188165,37.00323 15.767437,12.0592"
       id="web"
       inkscape:connector-curvature="0"
       sodipodi:nodetypes="ccccc"
       inkscape:label="#path4164">
       <animate
        attributeName="d"
        dur="2s"
        values="m 65.691636,1000.5329 0.08856,-24.11792 -35.365108,17.88919 4.188165,37.00323 15.767437,12.0592;m 65.691636,1015.5332 0.08856,-39.11822 -35.365108,17.88919 4.188165,37.00323 15.767437,12.0592;m 65.691636,1000.5329 0.08856,-24.11792 -35.365108,17.88919 4.188165,37.00323 15.767437,12.0592"
        repeatCount="indefinite"
        />
      </path>
    <g
       id="spider"
       inkscape:label="#g4195">
      <path
         sodipodi:nodetypes="ccc"
         inkscape:connector-curvature="0"
         id="path4136"
         d="m 59.946216,1012.0758 -6.074299,-4.3209 1.816028,-14.79953"
         style="opacity:1;fill:none;fill-opacity:1;stroke:#e8441d;stroke-width:1.63651216;stroke-linecap:round;stroke-linejoin:round;stroke-miterlimit:4;stroke-dasharray:none;stroke-dashoffset:0;stroke-opacity:1" />
      <path
         sodipodi:nodetypes="ccc"
         inkscape:connector-curvature="0"
         id="path4136-3"
         d="m 73.119844,1010.7473 8.100544,-7.1179 -7.034496,-11.4598"
         style="opacity:1;fill:none;fill-opacity:1;stroke:#e8441d;stroke-width:1.63651216;stroke-linecap:round;stroke-linejoin:round;stroke-miterlimit:4;stroke-dasharray:none;stroke-dashoffset:0;stroke-opacity:1" />
      <path
         style="opacity:1;fill:none;fill-opacity:1;stroke:#e8441d;stroke-width:1.63651216;stroke-linecap:round;stroke-linejoin:round;stroke-miterlimit:4;stroke-dasharray:none;stroke-dashoffset:0;stroke-opacity:1"
         d="m 59.970782,1012.9809 -9.434998,-1.4195 -2.358747,-12.67041"
         id="path4154"
         inkscape:connector-curvature="0"
         sodipodi:nodetypes="ccc" />
      <path
         sodipodi:nodetypes="ccc"
         inkscape:connector-curvature="0"
         id="path4156"
         d="m 74.098637,1011.4031 9.835354,-4.0582 1.690784,-11.83548"
         style="opacity:1;fill:none;fill-opacity:1;stroke:#e8441d;stroke-width:1.63651216;stroke-linecap:round;stroke-linejoin:round;stroke-miterlimit:4;stroke-dasharray:none;stroke-dashoffset:0;stroke-opacity:1" />
      <path
         style="opacity:1;fill:none;fill-opacity:1;stroke:#e8441d;stroke-width:1.63651216;stroke-linecap:round;stroke-linejoin:round;stroke-miterlimit:4;stroke-dasharray:none;stroke-dashoffset:0;stroke-opacity:1"
         d="m 59.448936,1028.1979 -3.068465,-10.3743 3.903413,-2.7136"
         id="path4158"
         inkscape:connector-curvature="0"
         sodipodi:nodetypes="ccc" />
      <path
         sodipodi:nodetypes="ccc"
         inkscape:connector-curvature="0"
         id="path4160"
         d="m 62.705258,1015.0474 -2.77623,3.0684 4.070407,6.7423"
         style="opacity:1;fill:none;fill-opacity:1;stroke:#e8441d;stroke-width:1.63651216;stroke-linecap:round;stroke-linejoin:round;stroke-miterlimit:4;stroke-dasharray:none;stroke-dashoffset:0;stroke-opacity:1" />
      <path
         style="opacity:1;fill:none;fill-opacity:1;stroke:#e8441d;stroke-width:1.63651216;stroke-linecap:round;stroke-linejoin:round;stroke-miterlimit:4;stroke-dasharray:none;stroke-dashoffset:0;stroke-opacity:1"
         d="m 73.726663,1025.0251 3.02671,-8.5374 -3.131082,-2.5675"
         id="path4162"
         inkscape:connector-curvature="0"
         sodipodi:nodetypes="ccc" />
      <path
         sodipodi:nodetypes="ccc"
         inkscape:connector-curvature="0"
         id="path4165"
         d="m 81.867479,1026.361 -1.440299,-10.8753 -5.468962,-2.8806"
         style="opacity:1;fill:none;fill-opacity:1;stroke:#e8441d;stroke-width:1.63651216;stroke-linecap:round;stroke-linejoin:round;stroke-miterlimit:4;stroke-dasharray:none;stroke-dashoffset:0;stroke-opacity:1" />
      <path
         sodipodi:nodetypes="sccccsss"
         inkscape:connector-curvature="0"
         id="path4167"
         d="m 70.562452,1003.8982 c 0,0.428 -0.03811,5.9333 0.628618,6.1567 6.671251,2.3874 2.942135,4.8837 -0.342214,3.5037 3.83,9.0996 -6.788762,6.4147 -5.673573,0.5259 -4.287241,1.6153 -6.691277,2.4669 -4.146136,-3.782 -1.028043,-0.8977 -1.926114,-3.1705 -1.389142,-5.3711 0.664008,-2.7211 2.011143,-4.428 4.309942,-4.428 2.298795,0 6.612505,1.6829 6.612505,3.3948 z"
         style="opacity:1;fill:none;fill-opacity:1;stroke:#e8441d;stroke-width:1.63651216;stroke-linecap:round;stroke-linejoin:round;stroke-miterlimit:4;stroke-dasharray:none;stroke-dashoffset:0;stroke-opacity:1" />
      <animateTransform
        attributeName="transform"
        type="translate"
        values="0 0;0 15;0 0"
        dur="2s"
        repeatCount="indefinite" />
    </g>
    <path
       style="opacity:0;fill:none;fill-opacity:1;stroke:#e8441d;stroke-width:3.66894078;stroke-linecap:round;stroke-linejoin:round;stroke-miterlimit:4;stroke-dasharray:none;stroke-dashoffset:0;stroke-opacity:1"
       d="m 10.402169,1007.8097 c -3.1687366,-15.54514 3.056243,-30.82381 14.781638,-39.94906 4.753336,-3.69927 10.410608,-6.38729 16.712439,-7.67186 21.847005,-4.45332 43.16764,9.64702 47.620987,31.49403 4.453296,21.84699 -9.647066,43.16759 -31.49406,47.62089 -21.847007,4.4534 -43.167698,-9.647 -47.621004,-31.494 z"
       id="path4177"
       inkscape:connector-curvature="0"
       sodipodi:nodetypes="ssssss" />
    <path
       style="opacity:0;fill:none;fill-opacity:1;stroke:#e8441d;stroke-width:3.66894078;stroke-linecap:round;stroke-linejoin:round;stroke-miterlimit:4;stroke-dasharray:none;stroke-dashoffset:0;stroke-opacity:1"
       d="m 23.747658,989.63845 c 7.230919,-14.12117 21.633068,-22.16891 36.489642,-21.97575 6.022682,0.0783 12.120037,1.51092 17.844599,4.44225 19.845726,10.16223 27.695761,34.48845 17.533554,54.33415 -10.162255,19.8458 -34.488513,27.6958 -54.334227,17.5336 -19.84573,-10.1623 -27.695827,-34.4885 -17.533568,-54.33425 z"
       id="path4177-36"
       inkscape:connector-curvature="0"
       sodipodi:nodetypes="ssssss" />
    <g
       id="text"
       inkscape:label="#g4224">
      <g
         transform="matrix(0.46757491,0,0,0.46757491,0.10078651,553.29065)"
         style="font-style:normal;font-weight:normal;font-size:40px;line-height:125%;font-family:sans-serif;letter-spacing:0px;word-spacing:0px;fill:#e8441d;fill-opacity:1;stroke:none;stroke-width:1px;stroke-linecap:butt;stroke-linejoin:miter;stroke-opacity:1"
         id="text4170">
        <path
           d="m 3.8722055,958.40278 c -0.2469714,0.89118 0.4644067,1.33833 1.193068,1.38137 l 0.059662,-0.006 c 0.2428871,0.0144 0.4637679,0.0109 0.706655,0.0253 l 0.7328992,0.0828 0.7527867,0.0807 c 0.2450061,0.0342 0.5098996,0.0663 0.7549057,0.10059 2.8867679,0.47684 5.3728509,1.15727 5.8755759,1.34507 -0.418452,0.2256 -3.094958,2.09972 -3.391968,2.3325 -0.150623,0.0965 -0.299128,0.21289 -0.447633,0.32927 l -0.2216977,0.18453 c -0.075312,0.0482 -0.1485047,0.11639 -0.2216976,0.18453 l -0.017768,0.022 c -0.1108488,0.0923 -0.1599163,0.19806 -0.2246334,0.34575 -0.2098007,0.48496 -0.029027,1.04898 0.4559309,1.25878 0.6787768,0.32994 1.3554348,0.64 2.0320928,0.95005 0.674539,0.29017 3.110737,1.2575 3.529676,1.414 -0.745945,0.36106 -7.2251883,2.60013 -8.1201229,2.69548 -0.07955,0.008 -0.1768679,0.039 -0.2741862,0.0694 -0.6393337,0.22902 -1.2168861,0.47158 -0.8261575,1.49595 0.3928475,1.04425 0.9759399,1.04247 1.6550485,0.8092 l 0.019888,-0.002 1.4356479,-0.49488 1.3958732,-0.49066 c 0.931289,-0.32047 1.838452,-0.67859 2.743496,-1.05661 0.885156,-0.3759 1.7902,-0.75391 2.653351,-1.14757 l 1.323497,-0.60362 c 0.440459,-0.20784 0.880918,-0.41567 1.339146,-0.64552 l 0.07531,-0.0482 c 0.323254,-0.17523 0.410794,-0.48626 0.48774,-0.89672 0.106942,-0.69524 -0.228694,-1.20254 -0.923937,-1.30948 -0.655469,-0.11118 -1.335062,-0.26002 -1.996888,-0.43086 -0.683831,-0.18861 -1.367663,-0.37722 -2.055733,-0.60561 -0.666063,-0.21061 -1.354133,-0.439 -2.024434,-0.68939 -0.123562,-0.0271 -0.229356,-0.0761 -0.355038,-0.12308 0.07531,-0.0482 0.150624,-0.0965 0.245823,-0.14687 0.564839,-0.36188 1.171572,-0.70811 1.778304,-1.05434 0.608852,-0.32635 1.219822,-0.6328 1.85068,-0.94138 0.307604,-0.13334 0.615208,-0.26668 0.940581,-0.42202 0.307604,-0.13334 0.635096,-0.2688 0.9427,-0.40214 l 0.228054,-0.12487 c 0.263592,-0.16888 0.357489,-0.42024 0.403135,-0.74691 0.09977,-0.5738 -0.177021,-0.90635 -0.748702,-0.98623 -1.043924,-0.17036 -2.036662,-0.42662 -3.049288,-0.68077 -0.992738,-0.25626 -2.005363,-0.51041 -3.017989,-0.76455 -1.010506,-0.23426 -2.0231319,-0.48841 -3.0514068,-0.70066 -0.5141375,-0.10612 -1.0303939,-0.23214 -1.5622999,-0.31625 L 6.1511149,957.51685 5.334428,957.40273 c -0.039775,0.004 -0.081669,-0.0114 -0.1214435,-0.007 -0.7286614,-0.043 -1.0574551,-0.10858 -1.3407803,1.00772 z"
           style="font-style:normal;font-variant:normal;font-weight:normal;font-stretch:normal;font-size:20px;font-family:'DOJO TOON';-inkscape-font-specification:'DOJO TOON';fill:#e8441d;fill-opacity:1"
           id="path4175"
           inkscape:connector-curvature="0" />
        <path
           d="m 12.709239,942.70335 -0.637964,0.23623 c -0.287664,0.10025 -0.502473,0.30581 -0.675988,0.49421 -0.174906,0.20834 -0.32986,0.41808 -0.464863,0.6292 -0.289956,0.42087 -0.521448,0.86585 -0.711646,1.29366 -0.4003487,0.85424 -0.6823775,1.73677 -0.9231129,2.60213 -0.2207838,0.86675 -0.4016643,1.73628 -0.5426415,2.60859 -0.070489,0.43616 -0.1210257,0.8737 -0.1915143,1.30986 -0.00556,0.0798 -0.012512,0.17956 -0.018073,0.25937 -0.3150552,-0.0821 -0.6245495,-0.24401 -0.9113116,-0.44442 -0.6092567,-0.46348 -1.1020725,-1.15942 -1.428324,-1.94399 -0.087246,-0.18652 -0.1531499,-0.3916 -0.1991023,-0.59528 -0.032952,-0.10254 -0.067294,-0.18513 -0.080295,-0.28628 -0.013,-0.10115 -0.047343,-0.18373 -0.040391,-0.28349 -0.053392,-0.38464 -0.045539,-0.78506 0.043511,-1.19988 0.08766,-0.39486 0.2152228,-0.78694 0.4012504,-1.1549 0.046855,-0.097 0.092319,-0.174 0.1391732,-0.27098 l 0.5303523,0.15725 c 0.018561,0.0213 0.038513,0.0227 0.038513,0.0227 0.5860365,0.22127 1.0773876,0.0751 1.2258043,-0.61628 0.1781,-0.82963 0.184563,-1.2101 -0.4014734,-1.43137 l -1.3275152,-0.51353 -0.038513,-0.0227 c -0.4491556,-0.17163 -0.9804099,-0.0282 -1.290318,0.39126 -0.022732,0.0385 -0.022732,0.0385 -0.024122,0.0585 l -0.024122,0.0585 -0.066806,0.0956 -0.093709,0.19396 c -0.049635,0.13688 -0.09788,0.25381 -0.1674662,0.3893 -0.09788,0.25381 -0.1957594,0.50762 -0.2736874,0.76282 -0.177198,0.52896 -0.3144927,1.0607 -0.3719809,1.59801 -0.07883,0.55586 -0.097805,1.1159 -0.036974,1.68149 0.030171,0.14245 0.040391,0.2835 0.069173,0.44589 0.031562,0.12249 0.061733,0.26493 0.093295,0.38742 0.081685,0.26633 0.1647601,0.5127 0.246445,0.77902 0.1847117,0.51408 0.4320588,0.99243 0.7193091,1.47356 0.3085922,0.46257 0.6584778,0.90797 1.0709989,1.31764 0.4338629,0.3911 0.951703,0.72791 1.5349589,0.98909 0.5846463,0.24122 1.2574404,0.3683 1.9427468,0.31581 0.3832518,-0.0334 0.7205508,-0.27057 0.8680658,-0.66126 0,0 0.151685,-0.45055 0.151685,-0.45055 0.01251,-0.17956 0.04776,-0.39764 0.06166,-0.59715 0.03385,-0.19813 0.04776,-0.39765 0.083,-0.61572 0.04776,-0.39765 0.115464,-0.7939 0.184563,-1.2101 0.116855,-0.81385 0.272223,-1.60496 0.487445,-2.3919 0.193881,-0.76839 0.427665,-1.53399 0.737085,-2.23417 0.144734,-0.35079 0.30664,-0.66028 0.487106,-0.94844 0.11088,-0.15266 0.200419,-0.28676 0.288567,-0.40091 0.06403,-0.0557 0.108099,-0.11276 0.152173,-0.16983 0.478839,0.0334 0.926604,0.22495 1.304783,0.55203 0.510889,0.43657 0.864043,1.12278 0.994949,1.8336 0.149468,0.73216 0.135152,1.51306 0.04242,2.26844 -0.04637,0.37769 -0.132636,0.7526 -0.200344,1.14885 -0.05241,0.17678 -0.106221,0.37352 -0.160027,0.57025 -0.0552,0.21669 -0.111782,0.45333 -0.265346,0.64312 -0.308518,0.39952 -0.714013,0.75218 -1.113948,1.02504 -0.358641,0.25569 -0.801259,0.56567 -0.854576,1.04312 -0.03941,0.27793 0.03205,0.4032 0.157809,0.61245 0.14293,0.25054 0.492327,0.41523 1.201756,0.30428 0.142442,-0.0302 0.284884,-0.0603 0.427325,-0.0905 0.142442,-0.0302 0.284884,-0.0603 0.410155,-0.13181 0.286274,-0.0803 0.556767,-0.22183 0.82865,-0.38332 0.251932,-0.16288 0.505254,-0.34572 0.741404,-0.56984 0.1081,-0.11276 0.237541,-0.24408 0.32708,-0.37818 0.06403,-0.0557 0.109489,-0.13271 0.174905,-0.20835 0.02273,-0.0385 0.04547,-0.077 0.0682,-0.11554 0.02273,-0.0385 0.02412,-0.0585 0.04546,-0.077 0.02273,-0.0385 0.02273,-0.0385 0.04825,-0.11693 0.01995,10e-4 0.02134,-0.0186 0.02273,-0.0385 l 0.02412,-0.0585 c 0.192979,-0.46772 0.327493,-0.95956 0.442056,-1.45279 0.134514,-0.49184 0.190612,-1.00919 0.226758,-1.52793 0.05234,-1.03888 -0.114785,-2.09304 -0.505551,-3.10265 -0.372203,-0.98826 -0.966656,-1.95191 -1.838552,-2.67427 -0.435253,-0.37115 -0.935922,-0.66667 -1.483446,-0.86521 -0.527572,-0.19715 -1.101998,-0.29732 -1.681985,-0.31769 z m -5.6910623,2.55058 -0.019952,-10e-4 c 0.019952,10e-4 0.021342,-0.0186 0.019952,10e-4 z m 8.1574653,6.36243 c 0,0 -0.0014,0.0199 -0.0014,0.0199 -0.0014,0.0199 -0.0014,0.0199 -0.02134,0.0186 l 0.01995,10e-4 c 0.0028,-0.0399 0.0028,-0.0399 0.0028,-0.0399 0.01995,10e-4 0,0 0,0 z m -2.394301,-6.78284 c 0,0 0,0 0,0 l 0,0 0,0 z"
           style="font-style:normal;font-variant:normal;font-weight:normal;font-stretch:normal;font-size:20px;font-family:'DOJO TOON';-inkscape-font-specification:'DOJO TOON';fill:#e8441d;fill-opacity:1"
           id="path4178"
           inkscape:connector-curvature="0" />
        <path
           d="m 9.7146781,927.96046 c -0.1497232,0.028 -0.2842963,0.0798 -0.4188694,0.13171 -0.062919,0.006 -0.1540904,0.0475 -0.2257442,0.0929 -0.091171,0.0411 -0.1628249,0.0865 -0.2344787,0.13199 -0.2909823,0.20131 -0.5038952,0.4201 -0.6777734,0.64762 -0.1738782,0.22753 -0.3087216,0.46378 -0.4196805,0.68489 -0.4525699,0.92346 -0.6490954,1.80174 -0.8217363,2.66487 -0.080929,0.45327 -0.1574908,0.88702 -0.1906506,1.30999 -0.076562,0.43374 -0.1140888,0.87623 -0.1472486,1.29919 -0.057044,0.43812 -0.090204,0.86109 -0.1277313,1.30357 -0.009,0.22343 -0.013642,0.42733 -0.042165,0.64639 -0.009,0.22343 -0.013642,0.42734 -0.027014,0.67028 l -0.00437,0.0195 c 0.00642,0.0629 -0.00669,0.12147 -2.704e-4,0.18439 0.083674,0.63356 0.510737,0.83159 1.1178236,1.04941 0.6070865,0.21782 1.1543837,-0.21307 1.1685669,-1.00918 0.6050381,0.13538 1.2100762,0.27077 1.8151138,0.40615 l 1.355432,0.2623 0.687475,0.13334 0.67874,0.17237 c 0.4489,0.10045 0.917316,0.20526 1.361848,0.32522 0.444532,0.11997 2.992572,0.73111 4.081177,0.99519 0.644072,0.14412 1.104295,-0.0808 1.252781,-0.7444 0.176738,-0.69826 -0.143193,-1.46666 -0.845818,-1.62388 l -0.01952,-0.004 c -1.110441,-0.1665 -1.782766,-0.27595 -2.698033,-0.39877 -0.34053,-0.0352 -0.674373,-0.19189 -1.014903,-0.2271 0.08939,-0.30791 0.135385,-0.60504 0.161858,-0.90653 0.0419,-0.462 0.02524,-0.9371 -0.01531,-1.39706 -0.09623,-0.94379 -0.303158,-1.85086 -0.63592,-2.7451 -0.337129,-0.87473 -0.761062,-1.72789 -1.406372,-2.50761 -0.320472,-0.39963 -0.688712,-0.76895 -1.152491,-1.07767 -0.23189,-0.15436 -0.492031,-0.27405 -0.776057,-0.3786 -0.284026,-0.10454 -0.576786,-0.17005 -0.878281,-0.19652 -0.305862,-0.007 -0.6204585,0.0251 -0.9003875,0.0855 z m 1.4395319,2.08464 c 0.227523,0.17388 0.437576,0.42583 0.619377,0.71245 0.363603,0.57323 0.614199,1.28513 0.782358,1.99907 0.168159,0.71395 0.284182,1.47772 0.322135,2.22402 0.02307,0.53802 0.02663,1.07167 0.06485,1.63358 -0.190806,-0.0632 -0.405497,-0.11123 -0.620188,-0.15927 -0.444532,-0.11996 -0.893431,-0.22041 -1.337963,-0.34037 -0.810995,-0.22246 -1.6219894,-0.44492 -2.4047322,-0.70205 0.00669,-0.12147 -0.00615,-0.24731 5.408e-4,-0.36878 0.00928,-0.40781 0.038068,-0.81126 0.06686,-1.21471 0.028793,-0.40345 0.077103,-0.80253 0.1210452,-1.1821 0.067827,-0.39471 0.1356546,-0.78942 0.2381494,-1.15589 0.1024948,-0.36646 0.2201397,-0.70904 0.3724521,-1.02336 0.1479451,-0.29481 0.3218233,-0.52233 0.4607636,-0.59372 0.00437,-0.0195 0.023885,-0.0151 0.047769,-0.0303 0.019517,0.004 0.00437,-0.0195 0.047769,-0.0303 0.062919,-0.006 0.1302061,-0.0323 0.1931251,-0.0388 0.130206,-0.0324 0.236527,-0.0496 0.353631,-0.0234 0.223426,0.009 0.448899,0.10045 0.672054,0.29384 z"
           style="font-style:normal;font-variant:normal;font-weight:normal;font-stretch:normal;font-size:20px;font-family:'DOJO TOON';-inkscape-font-specification:'DOJO TOON';fill:#e8441d;fill-opacity:1"
           id="path4180"
           inkscape:connector-curvature="0" />
        <path
           d="m 21.536959,921.95651 c -0.121656,0.50912 -0.262104,1.01139 -0.358121,1.50856 -0.05653,0.21355 -0.08742,0.41516 -0.137102,0.60992 -0.565491,-0.1422 -1.124134,-0.30319 -1.694721,-0.48982 -0.78414,-0.24315 -1.580223,-0.51195 -2.362611,-0.81833 -0.789236,-0.28759 -1.552834,-0.58712 -2.321528,-0.93108 -0.644002,-0.27724 -1.281156,-0.57327 -1.911464,-0.88809 0.04108,-0.11275 0.08217,-0.2255 0.130099,-0.35704 0.138698,-0.43904 0.3817,-0.98909 0.55798,-1.41444 l 0.0068,-0.0188 c 0.01369,-0.0376 0.02054,-0.0564 0.03424,-0.094 0.214017,-0.64575 -0.113723,-1.14833 -0.725239,-1.45631 -0.773791,-0.38839 -1.235286,-0.1734 -1.449304,0.47236 -0.159239,0.49542 -0.455425,1.36667 -0.577081,1.87578 -0.140448,0.50227 -0.243313,1.01824 -0.327387,1.54105 -0.171493,0.93797 -0.5338924,3.74344 0.520173,4.06367 0.796083,0.2688 0.915834,0.057 0.981271,-0.70676 0.02229,-0.11959 0.335985,-1.62306 0.298402,-1.63675 2.890519,0.94684 5.982491,2.15866 8.505471,3.35472 0,0 -0.0363,0.62537 -0.04314,0.64416 -0.04984,0.42885 -0.04171,1.04912 0.123761,1.47129 0.206394,0.5435 0.655791,0.53697 1.217935,0.57151 0.587783,0.0226 0.284198,-3.40869 1.813721,-6.32104 l 0.0068,-0.0188 c 0.05987,-0.1059 0.100959,-0.21865 0.142043,-0.3314 0.157644,-0.66629 -0.590198,-1.53482 -1.268437,-1.7181 -0.666294,-0.15764 -0.986213,0.42823 -1.162648,1.08768 z"
           style="font-style:normal;font-variant:normal;font-weight:normal;font-stretch:normal;font-size:20px;font-family:'DOJO TOON';-inkscape-font-specification:'DOJO TOON';fill:#e8441d;fill-opacity:1"
           id="path4182"
           inkscape:connector-curvature="0" />
        <path
           d="m 18.843362,903.92293 c -0.309671,0.58284 -0.2777,1.46044 0.400623,1.88878 0.784293,0.48465 1.576865,0.99634 2.389311,1.42801 0.803062,0.44932 1.588461,0.88926 2.391523,1.33858 0.812446,0.43167 1.615507,0.88099 2.382139,1.35625 0.247266,0.13138 0.467487,0.27103 0.705369,0.42007 -0.417284,0.23125 -0.852229,0.45311 -1.295452,0.64792 -0.497315,0.21138 -1.020569,0.38632 -1.543824,0.56126 -0.540916,0.16556 -1.072448,0.31345 -1.612259,0.4343 -0.557472,0.11147 -1.10556,0.20528 -1.653648,0.29908 -0.56575,0.0844 -1.122117,0.15118 -1.678483,0.21794 -0.574028,0.0574 -1.138672,0.0971 -1.693932,0.11914 -0.27763,0.011 -0.572922,0.0127 -0.850552,0.0237 -0.27763,0.011 -0.572922,0.0127 -0.841168,0.006 l -0.01766,-0.009 c -0.312953,-0.008 -0.584518,0.11974 -0.699337,0.4211 -0.17223,0.45204 -0.203164,0.97914 0.201953,1.23968 0.731308,0.4565 1.472,0.89533 2.222076,1.3165 l 2.204415,1.30712 c 0.740692,0.43884 1.481384,0.87767 2.232566,1.25413 0.379177,0.22411 0.75946,0.40351 1.148021,0.60996 0.380283,0.1794 0.760566,0.3588 1.194941,0.52165 0.54973,0.20149 1.013933,-0.11807 1.27779,-0.65731 0.282625,-0.57456 0.295897,-1.11105 -0.261005,-1.3843 l -0.141294,-0.0751 c -0.362622,-0.17001 -0.752289,-0.33175 -1.11491,-0.50177 l -1.151339,-0.47584 c -0.779334,-0.32347 -1.531622,-0.65523 -2.292188,-1.01403 -0.548624,-0.2462 -1.105526,-0.51944 -1.653043,-0.81034 0.116461,-0.006 0.250584,-0.003 0.394091,-0.0171 0.582306,-0.0303 1.183379,-0.096 1.784453,-0.16164 0.583412,-0.075 1.184486,-0.14069 1.769004,-0.26043 1.194976,-0.20306 2.38278,-0.47787 3.55624,-0.89619 1.181738,-0.39128 2.349132,-0.92606 3.432642,-1.68659 l 0,0 0.462561,-0.61484 c 0.09273,-0.13192 0.159527,-0.30026 0.181613,-0.4697 0.0486,-0.51773 -0.35099,-1.0018 -0.868714,-1.0504 -0.214154,-0.0232 -0.454249,-0.0828 -0.667297,-0.15071 -0.222432,-0.0502 -0.426097,-0.1358 -0.639145,-0.2037 -0.416713,-0.15347 -0.805274,-0.35991 -1.220881,-0.55808 -0.79589,-0.37757 -1.571906,-0.83517 -2.338537,-1.31044 -0.369794,-0.24177 -0.739587,-0.48354 -1.10938,-0.72531 -0.378071,-0.26882 -0.73848,-0.52825 -1.098889,-0.78768 -0.711434,-0.53653 -2.252405,-1.89881 -2.339608,-1.99044 -0.602145,-0.61434 -1.228623,-0.24512 -1.548784,0.40009 z"
           style="font-style:normal;font-variant:normal;font-weight:normal;font-stretch:normal;font-size:20px;font-family:'DOJO TOON';-inkscape-font-specification:'DOJO TOON';fill:#e8441d;fill-opacity:1"
           id="path4184"
           inkscape:connector-curvature="0" />
        <path
           d="m 37.193183,897.14891 -1.183516,-0.19102 c -0.0076,-0.15602 -0.04321,-0.30811 -0.134846,-0.45235 -0.338518,-0.58086 -0.98173,-0.89051 -1.578565,-0.56403 -0.172245,0.0956 -0.392908,0.355 -0.517244,0.48668 -0.05209,0.0359 -0.08821,0.0838 -0.124337,0.13169 -0.379845,-0.061 -0.74765,-0.13791 -1.131424,-0.22689 -0.515713,-0.11332 -1.047395,-0.23868 -1.539025,-0.38393 -0.519641,-0.14133 -1.039282,-0.28266 -1.534842,-0.45592 -0.267805,-0.0767 -0.5076,-0.1573 -0.763364,-0.24995 -0.267805,-0.0767 -0.507601,-0.1573 -0.751324,-0.26592 -0.495559,-0.17326 -1.007088,-0.35857 -1.482494,-0.59178 -0.05995,-0.0202 -0.135867,-0.0524 -0.207857,-0.0565 -0.619641,-0.14158 -1.168568,0.22102 -1.477955,0.76423 -0.634745,1.07439 0.04484,1.23612 0.94826,1.46643 0.02801,-0.004 0.04398,0.008 0.05995,0.0201 0.02357,0.16806 0.07908,0.36021 0.186682,0.51648 l 0.01597,0.012 c 0.949026,1.16643 1.817695,2.47265 2.800802,4.39116 0.807954,1.58607 1.319838,3.19938 1.97963,4.84907 0.242447,0.60862 0.464231,1.47719 1.119994,1.57087 0.523825,0.0693 1.449435,-0.56031 1.450711,-1.0603 -0.0019,-0.82801 -0.515812,-1.64133 -0.773719,-2.46199 -0.02383,-0.0681 -0.06362,-0.14816 -0.115458,-0.21229 0.04031,-0.1199 0.09265,-0.25577 0.132959,-0.37566 0.112806,-0.31572 0.253623,-0.63536 0.40648,-0.97097 0.281632,-0.63928 0.623214,-1.25841 0.980764,-1.8655 0.333469,-0.57515 0.710918,-1.14219 1.060356,-1.7053 0.03194,0.0241 0.07592,0.0322 0.09189,0.0442 0.479845,0.0612 1.635096,0.35618 1.635096,0.35618 l 0.411784,0.0851 c 0.143979,0.008 0.263877,0.0487 0.395815,0.073 1.27122,0.30725 1.557547,-0.60403 1.738924,-1.14357 0.13296,-0.37566 -0.01393,-0.81203 -0.361323,-1.04892 l -0.04791,-0.0361 c -0.463111,-0.34919 -1.179078,-0.36301 -1.690862,-0.44832 z m -5.314986,2.73044 c -0.26148,0.57934 -0.50699,1.17071 -0.768469,1.75005 -0.743567,-1.73791 -2.070397,-3.7653 -2.413099,-4.27418 0.05995,0.0202 0.103928,0.0283 0.163877,0.0484 l 0.787446,0.21801 0.775405,0.23398 c 0.267806,0.0767 0.535611,0.15337 0.775406,0.23398 0.267805,0.0767 0.53561,0.15337 0.791374,0.24602 0.179847,0.0605 0.371734,0.10495 0.55158,0.16541 -0.237143,0.4474 -0.458316,0.90683 -0.66352,1.37831 z"
           style="font-style:normal;font-variant:normal;font-weight:normal;font-stretch:normal;font-size:20px;font-family:'DOJO TOON';-inkscape-font-specification:'DOJO TOON';fill:#e8441d;fill-opacity:1"
           id="path4186"
           inkscape:connector-curvature="0" />
        <path
           d="m 44.896146,888.84406 c -0.4956,0.49435 -0.962952,1.01702 -1.40202,1.53972 -0.439067,0.52271 -0.86401,1.05957 -1.26067,1.59647 -0.410783,0.52274 -0.793318,1.0738 -1.175852,1.62486 l -0.425015,0.59343 c -0.381319,-0.4106 -0.748478,-0.83533 -1.115636,-1.26006 l -1.002714,-1.09021 -0.98859,-1.07605 c -0.649608,-0.73622 -1.327536,-1.44418 -2.005463,-2.15215 -0.677892,-0.73625 -1.327536,-1.44417 -1.991268,-2.19455 -0.0565,-0.0566 -0.09887,-0.0991 -0.155367,-0.15576 -0.565113,-0.45326 -0.975324,-0.38307 -1.428587,0.18204 -0.453263,0.56512 -0.779587,1.39909 -0.214474,1.85235 l 0,0 c 0.748763,0.60906 1.469207,1.24637 2.189615,1.91196 0.692123,0.66556 1.384247,1.33111 2.076335,2.02496 0.338982,0.33984 0.677963,0.67968 1.016945,1.01952 l 1.01691,1.0478 c 0.663804,0.6938 1.327571,1.41589 1.963055,2.13795 l 0.02825,0.0283 c 0.05646,0.0849 0.141243,0.1416 0.226024,0.19827 0.46635,0.26929 1.046374,0.11446 1.301505,-0.33776 0.155903,-0.26851 0.325966,-0.55113 0.510153,-0.8196 0.184188,-0.26847 0.368375,-0.53694 0.566687,-0.79125 0.368375,-0.53693 0.764998,-1.04555 1.175745,-1.54 0.382464,-0.49449 0.807335,-0.97479 1.232207,-1.45509 0.438996,-0.46613 0.877956,-0.90398 1.345165,-1.31352 l 0,0 c 0.01416,-0.0141 0.02832,-0.0282 0.04248,-0.0424 0.4248,-0.42373 0.312414,-1.01784 0.0019,-1.52735 -0.578593,-0.97654 -1.102549,-0.42566 -1.527349,-0.002 z"
           style="font-style:normal;font-variant:normal;font-weight:normal;font-stretch:normal;font-size:20px;font-family:'DOJO TOON';-inkscape-font-specification:'DOJO TOON';fill:#e8441d;fill-opacity:1"
           id="path4188"
           inkscape:connector-curvature="0" />
        <path
           d="m 49.121922,871.97757 c -0.529288,0.39427 -0.875922,1.20115 -0.446129,1.87855 0.501479,0.77364 0.998868,1.57527 1.548464,2.31306 0.533558,0.74975 1.055168,1.48345 1.588725,2.2332 0.549597,0.73779 1.083154,1.48754 1.572686,2.24514 0.167268,0.22455 0.30655,0.445 0.45778,0.6815 -0.476102,0.0304 -0.964152,0.0448 -1.44811,0.0313 -0.539932,-0.0218 -1.08772,-0.0875 -1.635509,-0.15333 -0.559736,-0.0818 -1.103433,-0.1756 -1.643039,-0.29736 -0.551553,-0.1378 -1.087068,-0.28755 -1.622582,-0.4373 -0.547462,-0.16578 -1.078885,-0.34352 -1.610308,-0.52125 -0.543371,-0.19377 -1.070703,-0.3995 -1.581996,-0.61716 -0.255646,-0.10884 -0.523241,-0.23371 -0.778887,-0.34255 -0.255646,-0.10883 -0.52324,-0.2337 -0.762848,-0.35449 l -0.01195,-0.016 c -0.279541,-0.14091 -0.57954,-0.14189 -0.812269,0.0814 -0.349094,0.33486 -0.602606,0.79803 -0.347938,1.20687 0.465636,0.72552 0.947311,1.43909 1.445025,2.14072 l 1.433078,2.12469 c 0.481676,0.71357 0.963351,1.42715 1.481195,2.08884 0.246812,0.36481 0.513754,0.68968 0.776604,1.04254 0.266942,0.32487 0.533884,0.64974 0.8568,0.9828 0.410641,0.41734 0.966938,0.32715 1.436161,-0.0473 0.501302,-0.39837 0.742867,-0.87758 0.356447,-1.36284 l -0.09558,-0.12832 c -0.254994,-0.30883 -0.537975,-0.62175 -0.792969,-0.93059 l -0.836995,-0.92273 c -0.565962,-0.62585 -1.103937,-1.24761 -1.63782,-1.89735 -0.390511,-0.45728 -0.77693,-0.94254 -1.147311,-1.43975 0.107856,0.0444 0.22766,0.10474 0.363503,0.15318 0.539279,0.22176 1.110637,0.41963 1.681995,0.61749 0.55941,0.18183 1.130767,0.37969 1.710308,0.52158 1.166937,0.32781 2.358095,0.5877 3.597697,0.71174 1.235511,0.15203 2.519465,0.16822 3.824202,-0.0555 l 0,0 0.68117,-0.35778 c 0.140261,-0.0795 0.272664,-0.20311 0.365134,-0.34681 0.265459,-0.44713 0.111443,-1.05564 -0.335693,-1.3211 -0.183634,-0.1126 -0.375124,-0.26923 -0.538628,-0.42176 -0.179542,-0.14059 -0.327007,-0.30507 -0.49051,-0.4576 -0.310968,-0.31702 -0.573818,-0.66988 -0.864656,-1.02683 -0.557779,-0.68182 -1.063349,-1.42747 -1.552881,-2.18507 -0.230773,-0.37676 -0.461545,-0.75351 -0.692317,-1.13027 -0.226682,-0.40474 -0.441415,-0.79344 -0.656148,-1.18214 -0.413428,-0.78936 -1.223266,-2.68001 -1.262874,-2.80014 -0.281351,-0.81292 -1.005569,-0.74728 -1.571027,-0.30112 z"
           style="font-style:normal;font-variant:normal;font-weight:normal;font-stretch:normal;font-size:20px;font-family:'DOJO TOON';-inkscape-font-specification:'DOJO TOON';fill:#e8441d;fill-opacity:1"
           id="path4190"
           inkscape:connector-curvature="0" />
        <path
           d="m 64.27806,875.18083 c -0.427583,0.30194 -0.864754,0.58634 -1.265197,0.89625 -0.183482,0.12302 -0.339824,0.25401 -0.505755,0.36744 -0.330712,-0.48024 -0.643873,-0.97006 -0.94907,-1.48703 -0.428219,-0.70045 -0.848474,-1.42804 -1.233626,-2.1748 -0.402703,-0.73718 -0.778266,-1.46639 -1.128314,-2.23233 -0.300483,-0.63349 -0.583413,-1.27657 -0.848792,-1.92924 0.105311,-0.0575 0.210622,-0.11506 0.333485,-0.18218 0.394104,-0.23808 0.939835,-0.49062 1.353116,-0.69359 l 0.01755,-0.01 c 0.0351,-0.0192 0.05266,-0.0288 0.08776,-0.0479 0.587174,-0.34355 0.672991,-0.93738 0.4172,-1.5725 -0.324532,-0.80267 -0.813053,-0.94601 -1.400227,-0.60246 -0.446759,0.26684 -1.244556,0.72545 -1.672139,1.0274 -0.437171,0.28439 -0.855166,0.60389 -1.263573,0.94094 -0.748231,0.59106 -2.87315,2.45834 -2.293145,3.39492 0.420255,0.72759 0.650053,0.64764 1.203589,0.11736 0.09572,-0.0751 1.324193,-0.99685 1.305016,-1.03196 1.545162,2.61994 3.066592,5.5719 4.171175,8.13625 0,0 -0.440262,0.44561 -0.457814,0.4552 -0.320647,0.28911 -0.724181,0.76024 -0.878739,1.18651 -0.203965,0.54443 0.137801,0.83631 0.537097,1.2335 0.426435,0.40516 2.464584,-2.37188 5.536473,-3.54861 l 0.01755,-0.01 c 0.114899,-0.04 0.22021,-0.0975 0.325521,-0.15503 0.55841,-0.39621 0.570452,-1.54227 0.182211,-2.12782 -0.396205,-0.55841 -1.023357,-0.32976 -1.591355,0.0489 z"
           style="font-style:normal;font-variant:normal;font-weight:normal;font-stretch:normal;font-size:20px;font-family:'DOJO TOON';-inkscape-font-specification:'DOJO TOON';fill:#e8441d;fill-opacity:1"
           id="path4192"
           inkscape:connector-curvature="0" />
        <path
           d="m 78.43655,870.04857 -0.899378,-0.79267 c 0.07676,-0.13604 0.127731,-0.28369 0.127119,-0.45457 0.02334,-0.67191 -0.355695,-1.27683 -1.034688,-1.31887 -0.19667,-0.011 -0.521682,0.0908 -0.697083,0.13592 -0.06319,0.003 -0.119298,0.0238 -0.175402,0.0451 -0.288832,-0.25412 -0.558963,-0.51532 -0.836184,-0.79523 -0.375861,-0.37085 -0.758812,-0.7604 -1.09727,-1.14543 -0.36425,-0.39664 -0.728499,-0.79327 -1.055346,-1.20409 -0.185669,-0.20767 -0.345548,-0.40373 -0.512516,-0.61849 -0.185669,-0.20767 -0.345548,-0.40373 -0.493815,-0.62558 -0.326846,-0.41082 -0.660782,-0.84033 -0.938614,-1.29112 -0.03997,-0.049 -0.08703,-0.11673 -0.1457,-0.15866 -0.448711,-0.45017 -1.106436,-0.43612 -1.65782,-0.14154 -1.109856,0.57046 -0.621176,1.06965 0.02029,1.7462 0.02579,0.0116 0.03288,0.0303 0.03997,0.049 -0.06967,0.15474 -0.125164,0.34689 -0.117463,0.53647 l 0.0071,0.0187 c 0.180906,1.49281 0.219289,3.06103 0.028,5.20827 -0.162196,1.77259 -0.58939,3.41037 -0.910854,5.15778 -0.119419,0.64416 -0.394925,1.49721 0.10989,1.92612 0.406174,0.33797 1.524955,0.29885 1.79264,-0.12346 0.439908,-0.70148 0.438806,-1.66356 0.658208,-2.49535 0.01614,-0.0703 0.02518,-0.15926 0.01552,-0.24116 0.09803,-0.0799 0.21476,-0.16697 0.312789,-0.24691 0.263774,-0.20693 0.553339,-0.40226 0.861605,-0.60467 0.57913,-0.39066 1.198229,-0.73229 1.824418,-1.05523 0.588787,-0.30876 1.210453,-0.5872 1.806329,-0.87725 0.01418,0.0374 0.04706,0.0677 0.05415,0.0864 0.373294,0.30766 1.193344,1.17317 1.193344,1.17317 l 0.303012,0.29152 c 0.117342,0.0838 0.197281,0.18188 0.295922,0.27282 0.911601,0.93776 1.639729,0.31951 2.080861,-0.0402 0.312788,-0.2469 0.421206,-0.69439 0.253627,-1.08003 l -0.02127,-0.0561 c -0.205593,-0.54234 -0.803915,-0.9358 -1.191388,-1.28086 z m -5.952286,-0.52411 c -0.530115,0.35068 -1.053141,0.72006 -1.583256,1.07074 0.297628,-1.86671 0.256187,-4.28933 0.237606,-4.90256 0.03997,0.049 0.07285,0.0793 0.11282,0.12834 l 0.549919,0.60431 0.531217,0.6114 c 0.185669,0.20767 0.371339,0.41534 0.531217,0.6114 0.18567,0.20767 0.371339,0.41534 0.538307,0.6301 0.119909,0.14704 0.258519,0.28699 0.378428,0.43404 -0.439175,0.25204 -0.871261,0.52278 -1.296258,0.81223 z"
           style="font-style:normal;font-variant:normal;font-weight:normal;font-stretch:normal;font-size:20px;font-family:'DOJO TOON';-inkscape-font-specification:'DOJO TOON';fill:#e8441d;fill-opacity:1"
           id="path4194"
           inkscape:connector-curvature="0" />
      </g>
      <g
         transform="matrix(0.46757491,0,0,0.46757491,0.93574171,553.12366)"
         style="font-style:normal;font-variant:normal;font-weight:normal;font-stretch:normal;font-size:40px;line-height:125%;font-family:'DOJO TOON';-inkscape-font-specification:'DOJO TOON';letter-spacing:0px;word-spacing:0px;fill:#e8441d;fill-opacity:1;stroke:none;stroke-width:1px;stroke-linecap:butt;stroke-linejoin:miter;stroke-opacity:1"
         id="text4481">
        <path
           d="m 52.482047,922.30961 -1.121918,-0.0668 c -0.02177,-0.14482 -0.0693,-0.28333 -0.168345,-0.40925 -0.370418,-0.50995 -0.999521,-0.73825 -1.525507,-0.37756 -0.151671,0.10534 -0.333085,0.3681 -0.436671,0.50263 -0.04521,0.0384 -0.0744,0.0864 -0.103585,0.13453 -0.360044,-0.0211 -0.71036,-0.0583 -1.076704,-0.10517 -0.491702,-0.0572 -0.999433,-0.12407 -1.471678,-0.21329 -0.498002,-0.0829 -0.996004,-0.16586 -1.474549,-0.28084 -0.257015,-0.0463 -0.488273,-0.099 -0.73556,-0.16131 -0.257015,-0.0463 -0.488273,-0.099 -0.725832,-0.17734 -0.478545,-0.11499 -0.973118,-0.2397 -1.438506,-0.4125 -0.05781,-0.0132 -0.131658,-0.036 -0.199201,-0.0332 -0.591302,-0.0738 -1.069202,0.31612 -1.306672,0.85192 -0.490969,1.06188 0.158148,1.14879 1.022494,1.2786 0.02576,-0.006 0.04179,0.003 0.05781,0.0132 0.0378,0.15454 0.107659,0.32854 0.222731,0.46419 l 0.01603,0.01 c 0.994979,0.9987 1.928158,2.13536 3.025697,3.83238 0.902881,1.4034 1.53216,2.86007 2.302826,4.33676 0.283418,0.54488 0.572022,1.33419 1.19251,1.35986 0.49513,0.0154 1.299259,-0.65903 1.253399,-1.12553 -0.07967,-0.77216 -0.635579,-1.48243 -0.953369,-2.22364 -0.02863,-0.0612 -0.07329,-0.13222 -0.127673,-0.18716 0.02631,-0.11563 0.06236,-0.24729 0.08867,-0.36292 0.07551,-0.3051 0.176784,-0.6165 0.287783,-0.94393 0.202541,-0.6228 0.462897,-1.23245 0.739281,-1.83237 0.256927,-0.56786 0.55564,-1.13229 0.828595,-1.69042 0.03206,0.0195 0.07384,0.0229 0.08987,0.0326 0.453345,0.012 1.558678,0.17837 1.558678,0.17837 l 0.392101,0.0406 c 0.135086,-0.006 0.250715,0.0206 0.376073,0.0309 1.214662,0.16697 1.395987,-0.70998 1.5144,-1.23031 0.08867,-0.36292 -0.0894,-0.75613 -0.435734,-0.9444 l -0.04809,-0.0292 c -0.464831,-0.28213 -1.133962,-0.22765 -1.619364,-0.25906 z m -4.700703,3.047 c -0.189384,0.56499 -0.362739,1.1397 -0.552123,1.70469 -0.857109,-1.55109 -2.285507,-3.31731 -2.653053,-3.75973 0.05781,0.0132 0.0996,0.0166 0.157415,0.0297 l 0.755017,0.12926 0.745289,0.14528 c 0.257015,0.0463 0.51403,0.0927 0.745289,0.14528 0.257015,0.0463 0.51403,0.0927 0.761317,0.15502 0.173444,0.0395 0.356616,0.0629 0.530059,0.10238 -0.179098,0.43963 -0.342168,0.88899 -0.48921,1.34808 z"
           style="font-style:normal;font-variant:normal;font-weight:normal;font-stretch:normal;font-size:18.75000191px;font-family:'DOJO TOON';-inkscape-font-specification:'DOJO TOON';fill:#e8441d;fill-opacity:1"
           id="path4197"
           inkscape:connector-curvature="0" />
        <path
           d="m 58.804594,913.80534 c -0.41149,0.51121 -0.793768,1.04594 -1.149683,1.57782 -0.355915,0.53188 -0.697224,1.07551 -1.01217,1.6163 -0.329552,0.52903 -0.629892,1.08157 -0.930231,1.63411 l -0.335611,0.59636 c -0.397214,-0.34379 -0.782672,-0.7022 -1.168129,-1.0606 l -1.045583,-0.91383 -1.030976,-0.90207 c -0.680429,-0.6199 -1.384372,-1.2106 -2.088315,-1.80129 -0.706792,-0.61705 -1.384372,-1.2106 -2.079408,-1.84226 -0.05842,-0.047 -0.102243,-0.0823 -0.160667,-0.12932 -0.572848,-0.36482 -0.947988,-0.2576 -1.312811,0.31524 -0.364822,0.57285 -0.583943,1.38333 -0.0111,1.74815 l 0,0 c 0.759878,0.4913 1.496243,1.01181 2.235456,1.55868 0.712851,0.54973 1.425701,1.09945 2.141401,1.67554 0.350547,0.28216 0.701094,0.56433 1.051641,0.84649 l 1.05449,0.87286 c 0.689337,0.57893 1.381523,1.18423 2.047346,1.79238 l 0.02921,0.0235 c 0.06127,0.0734 0.146061,0.11757 0.230849,0.16175 0.462057,0.20344 0.986827,3e-5 1.178506,-0.44742 0.117929,-0.26612 0.247614,-0.54685 0.391905,-0.81581 0.144292,-0.26897 0.288583,-0.53794 0.447481,-0.79515 0.288583,-0.53794 0.606378,-1.05236 0.938779,-1.55503 0.306038,-0.49982 0.653046,-0.99073 1.000053,-1.48164 0.361614,-0.47915 0.726077,-0.93194 1.119752,-1.36121 l 0,0 c 0.01176,-0.0146 0.02351,-0.0292 0.03527,-0.0438 0.352706,-0.43819 0.18742,-0.98041 -0.15386,-1.4236 -0.63874,-0.85112 -1.070895,-0.28433 -1.423601,0.15386 z"
           style="font-style:normal;font-variant:normal;font-weight:normal;font-stretch:normal;font-size:18.75000191px;font-family:'DOJO TOON';-inkscape-font-specification:'DOJO TOON';fill:#e8441d;fill-opacity:1"
           id="path4199"
           inkscape:connector-curvature="0" />
        <path
           d="m 63.256362,902.24227 c -0.255427,0.24833 -0.497411,0.4836 -0.739768,0.74538 -0.242357,0.26178 -0.471271,0.51049 -0.713628,0.77227 -0.4582,0.52393 -0.903331,1.06131 -1.348834,1.6252 -0.310321,0.38016 -0.621016,0.78683 -0.91864,1.20695 -0.314061,-0.29613 -0.628122,-0.59227 -0.94181,-0.91491 -0.300991,-0.28269 -0.601609,-0.59189 -0.902226,-0.90109 -0.130703,-0.13444 -0.261407,-0.26887 -0.37904,-0.38987 0.135556,-0.21024 0.297625,-0.42011 0.459694,-0.62998 0.257293,-0.38091 0.554171,-0.748 0.864493,-1.12816 0.310321,-0.38016 0.646783,-0.73343 0.970175,-1.10014 0.175139,-0.19643 0.349905,-0.36635 0.511601,-0.5497 l 0.511228,-0.52319 0.01382,-0.0396 c 0.322645,-0.31368 0.208745,-0.69981 0.01605,-1.14009 -0.308836,-0.66733 -0.839487,-0.64828 -1.281258,-0.34953 -0.120619,0.0911 -0.227794,0.16917 -0.334969,0.24722 -0.120619,0.0911 -0.227794,0.16917 -0.33497,0.24722 -0.214723,0.18261 -0.416003,0.35215 -0.630727,0.53476 -0.402933,0.3656 -0.792796,0.74464 -1.169962,1.16363 -0.188583,0.2095 -0.377166,0.419 -0.552679,0.64194 -0.175512,0.22294 -0.351025,0.44589 -0.500397,0.69571 -0.311814,0.48622 -0.584791,1.03928 -0.712874,1.66068 l 0,0 c -0.123231,0.27671 -0.114639,0.60832 0.06723,0.87607 l 0.06535,0.0672 0.208006,0.29464 c 0.06498,0.0937 0.129957,0.18746 0.194935,0.28119 0.1434,0.1744 0.286801,0.34879 0.416758,0.53625 0.2868,0.34879 0.587045,0.6845 0.873845,1.03329 0.417504,0.48322 0.861896,0.9403 1.279773,1.39701 -3.73e-4,0.0265 -0.02726,0.0527 -0.04108,0.0922 -0.05415,0.0788 -0.08178,0.15796 -0.136302,0.26327 l -0.02689,0.0261 c -0.01382,0.0396 -0.01419,0.0661 -0.02801,0.10568 -0.233765,0.59339 0.183739,1.07662 0.722235,1.4422 0.499285,0.32526 0.900352,0.0922 1.2103,-0.26141 0.27485,0.2558 0.550074,0.48509 0.825297,0.71437 0.340575,0.29651 0.681523,0.5665 1.035542,0.84993 0.354392,0.25692 0.735297,0.51422 1.103132,0.75807 0.42049,0.27111 1.004542,0.22629 1.380962,-0.13968 0.443637,-0.43132 0.44027,-1.13412 0.0089,-1.57776 l -0.02614,-0.0269 c -0.314061,-0.29613 -0.615052,-0.57882 -0.942557,-0.86188 -0.156844,-0.16132 -0.314061,-0.29613 -0.471278,-0.43094 -0.170287,-0.14825 -0.327505,-0.28306 -0.471278,-0.43094 l -1.244294,-1.09154 c 0.298744,-0.49966 0.597488,-0.99931 0.935816,-1.48516 0.365588,-0.53849 0.744621,-1.09006 1.149793,-1.61474 0.18933,-0.26252 0.405173,-0.52468 0.621016,-0.78683 0.2024,-0.24908 0.418243,-0.51123 0.620643,-0.76032 l 0.02689,-0.0261 c 0.283061,-0.3275 0.15609,-0.72708 -0.157598,-1.04972 -0.444018,-0.4836 -0.763304,-0.40853 -1.086323,-0.0683 z"
           style="font-style:normal;font-variant:normal;font-weight:normal;font-stretch:normal;font-size:18.75000191px;font-family:'DOJO TOON';-inkscape-font-specification:'DOJO TOON';fill:#e8441d;fill-opacity:1"
           id="path4201"
           inkscape:connector-curvature="0" />
        <path
           d="m 77.069779,898.38546 -1.012444,-0.48797 c 0.03487,-0.14223 0.04352,-0.28842 -2.7e-4,-0.44252 -0.148939,-0.61244 -0.644164,-1.0626 -1.267736,-0.92875 -0.180319,0.0398 -0.447947,0.21399 -0.59487,0.29908 -0.0564,0.0183 -0.10166,0.0517 -0.146924,0.0851 -0.325031,-0.15631 -0.634974,-0.32375 -0.956048,-0.50628 -0.433129,-0.23967 -0.877389,-0.49442 -1.280342,-0.75634 -0.429173,-0.26589 -0.858345,-0.53177 -1.257341,-0.81992 -0.220152,-0.14048 -0.414085,-0.27701 -0.619149,-0.42863 -0.220152,-0.14049 -0.414084,-0.27702 -0.60406,-0.43976 -0.398997,-0.28815 -0.809125,-0.59139 -1.173989,-0.92802 -0.04848,-0.0341 -0.108098,-0.0833 -0.171669,-0.10635 -0.518963,-0.29284 -1.10914,-0.11372 -1.532341,0.29171 -0.857535,0.79578 -0.290089,1.12275 0.460158,1.57117 0.02622,0.004 0.03735,0.019 0.04848,0.0341 -0.02374,0.15732 -0.02521,0.34481 0.02971,0.514 l 0.01113,0.0151 c 0.541029,1.30179 0.972487,2.70773 1.343124,4.69446 0.302104,1.64117 0.330878,3.2277 0.482838,4.88644 0.05519,0.61171 0.02234,1.45147 0.586564,1.71092 0.452173,0.20231 1.452208,-0.11608 1.586993,-0.56504 0.219612,-0.74454 -0.02482,-1.61274 -0.03723,-2.41912 -0.0032,-0.0675 -0.01757,-0.15014 -0.04701,-0.22162 0.06826,-0.097 0.151617,-0.20507 0.219882,-0.30203 0.18575,-0.25355 0.397719,-0.50314 0.624776,-0.76386 0.423939,-0.49918 0.896361,-0.96423 1.379914,-1.41419 0.453378,-0.4277 0.944107,-0.83636 1.408616,-1.24897 0.02226,0.0302 0.05961,0.0492 0.07075,0.0643 0.414822,0.18327 1.374089,0.75708 1.374089,0.75708 l 0.347294,0.18649 c 0.127143,0.046 0.224109,0.11426 0.336163,0.1714 1.06019,0.61585 1.561043,-0.12648 1.868234,-0.56283 0.219882,-0.30203 0.204524,-0.73341 -0.04433,-1.03913 l -0.03339,-0.0453 c -0.322819,-0.43756 -0.962486,-0.64134 -1.399571,-0.85479 z m -5.505794,1.03299 c -0.389807,0.4507 -0.768481,0.91648 -1.158288,1.36718 -0.203662,-1.7604 -0.854067,-3.93684 -1.026006,-4.48571 0.04848,0.0341 0.08583,0.0532 0.134317,0.0873 l 0.649325,0.40637 0.634236,0.4175 c 0.220152,0.14049 0.440305,0.28097 0.634237,0.4175 0.220152,0.14049 0.440304,0.28097 0.645368,0.43259 0.145449,0.1024 0.305987,0.19366 0.451436,0.29606 -0.332674,0.33865 -0.654215,0.69238 -0.964625,1.0612 z"
           style="font-style:normal;font-variant:normal;font-weight:normal;font-stretch:normal;font-size:18.75000191px;font-family:'DOJO TOON';-inkscape-font-specification:'DOJO TOON';fill:#e8441d;fill-opacity:1"
           id="path4203"
           inkscape:connector-curvature="0" />
      </g>
    </g>
  </g>
</svg>
